<svg version="1.0" xmlns="http://www.w3.org/2000/svg" width="656" height="336" viewBox="0 0 656 336">
	<rect fill="#fff" width="656" height="336" x="0" y="0" />
	<path fill="#000" d="m 0,0 h 16 v 192 h 64 v 16 H 16 v 112 h 240 v -64 h 16 v 64 h 112 v -48 h -64 v -80 h 16 v 64 H 448 V 208 H 384 V 144 H 320 V 80 H 256 V 64 h 80 v 64 h 64 v 64 H 512 V 80 h -48 v 64 H 448 V 64 h 144 v 16 h -64 v 128 h -64 v 64 h -64 v 48 h 192 v 16 H 0 Z M 640,272 H 512 V 256 H 640 V 144 h -48 v 64 h -16 v -80 h 64 V 16 H 400 V 80 H 384 V 16 H 208 v 112 h 64 v 80 h -64 v 64 H 64 v -16 h 128 v -64 h 64 V 144 H 144 v 64 H 128 V 144 H 64 V 64 h 80 V 80 H 80 v 48 H 192 V 16 H 64 V 0 h 592 v 336 h -16 z m -24,56 h -4 v -4 h -4 v -4 h -4 v -4 h -4 v -4 h 12 v -20 h 12 v 20 h 12 v 4 h -4 v 4 h -4 v 4 h -4 v 4 h -4 v 4 h -4 z M 40,40 H 36 V 36 H 32 V 32 H 28 V 28 H 24 V 24 H 36 V 4 h 12 v 20 h 12 v 4 h -4 v 4 h -4 v 4 h -4 v 4 h -4 v 4 h -4 z" />
	<path fill="#000" d="m 404,292 v 4 h 12 v -4 z m 0,16 v 4 h 188 v -4 z m 0,-8 v 4 h 12 v -4 z m 0,-16 v 4 h 12 v -4 z m 0,-8 v 4 h 12 v -4 z m 12,4 v 4 h 64 v -4 z m 52,-12 v 4 h 12 v -4 z m 0,-24 v 4 h 12 v -4 z m 0,16 v 4 h 12 v -4 z m 0,-8 v 4 h 12 v -4 z m 0,-16 v 4 h 12 v -4 z m 0,-8 v 4 h 12 v -4 z m 0,-8 v 4 h 12 v -4 z m 0,-8 v 4 h 12 v -4 z m 12,4 v 4 h 64 v -4 z m 52,-28 v 4 h 12 v -4 z m 0,16 v 4 h 12 v -4 z m 0,-8 v 4 h 12 v -4 z m 0,-16 v 4 h 12 v -4 z m 0,-8 v 4 h 12 v -4 z m 0,-8 v 4 h 12 v -4 z m 0,-8 v 4 h 12 v -4 z m 0,-8 v 4 h 12 v -4 z m 0,-24 v 4 h 12 v -4 z m 0,16 v 4 h 12 v -4 z m 0,-8 v 4 h 12 v -4 z m 0,-16 v 4 h 12 v -4 z m 0,-8 v 4 h 12 v -4 z m 0,-8 v 4 h 12 v -4 z m 0,-8 v 4 h 12 v -4 z m 0,-8 v 4 h 12 v -4 z m -60,128 h 4 v 64 h -4 z m 64,92 h 4 v 12 h -4 z m 8,0 h 4 v 12 h -4 z m 8,0 h 4 v 12 h -4 z m 8,0 h 4 v 12 h -4 z m 8,0 h 4 v 12 h -4 z m 8,0 h 4 v 12 h -4 z m 8,0 h 4 v 12 h -4 z m -112,0 h 4 v 12 h -4 z m 8,0 h 4 v 12 h -4 z m 8,0 h 4 v 12 h -4 z m 8,0 h 4 v 12 h -4 z m 8,0 h 4 v 12 h -4 z m 8,0 h 4 v 12 h -4 z m 8,0 h 4 v 12 h -4 z m 8,0 h 4 v 12 h -4 z M 408,276 h 4 v 40 h -4 z m 8,28 h 4 v 12 h -4 z m 8,0 h 4 v 12 h -4 z m 8,0 h 4 v 12 h -4 z m 8,0 h 4 v 12 h -4 z m 8,0 h 4 v 12 h -4 z m 8,0 h 4 v 12 h -4 z m 8,0 h 4 v 12 h -4 z m -44,-28 h 4 v 12 h -4 z m 8,0 h 4 v 12 h -4 z m 8,0 h 4 v 12 h -4 z m 8,0 h 4 v 12 h -4 z m 8,0 h 4 v 12 h -4 z m 8,0 h 4 v 12 h -4 z m 8,0 h 4 v 12 h -4 z m 8,0 h 4 v 12 h -4 z m 8,-64 h 4 v 12 h -4 z m 8,0 h 4 v 12 h -4 z m 8,0 h 4 v 12 h -4 z m 8,0 h 4 v 12 h -4 z m 8,0 h 4 v 12 h -4 z m 8,0 h 4 v 12 h -4 z m 8,0 h 4 v 12 h -4 z m 8,0 h 4 v 12 h -4 z m 8,-128 h 4 v 12 h -4 z m 8,0 h 4 v 12 h -4 z m 8,0 h 4 v 12 h -4 z m 8,0 h 4 v 12 h -4 z m 8,0 h 4 v 12 h -4 z m 8,0 h 4 v 12 h -4 z m 8,0 h 4 v 12 h -4 z m 8,0 h 4 v 12 h -4 z M 560,48 h 4 v 12 h -4 z m 8,0 h 4 v 12 h -4 z m 8,0 h 4 v 12 h -4 z m 8,0 h 4 v 12 h -4 z m 8,0 h 4 v 12 h -4 z m 8,0 h 4 v 36 h -4 z m -104,0 h 4 v 12 h -4 z m 8,0 h 4 v 12 h -4 z m 8,0 h 4 v 12 h -4 z m 8,0 h 4 v 12 h -4 z m 8,0 h 4 v 12 h -4 z m 8,0 h 4 v 12 h -4 z m 8,0 h 4 v 12 h -4 z m 8,0 h 4 v 12 h -4 z M 432,152 v 4 h 48 v -4 z m 64,-48 v 4 h 12 v -4 z m 0,16 v 4 h 12 v -4 z m 0,-8 v 4 h 12 v -4 z m 0,-16 v 4 h 12 v -4 z m -16,-8 v 4 h 28 v -4 z m 16,80 v 4 h 12 v -4 z m 0,16 v 4 h 12 v -4 z m 0,-8 v 4 h 12 v -4 z m 0,-16 v 4 h 12 v -4 z m 0,-8 v 4 h 12 v -4 z m 0,-8 v 4 h 12 v -4 z m 0,-8 v 4 h 12 v -4 z m 0,-8 v 4 h 12 v -4 z m -128,64 v 4 h 12 v -4 z m 0,16 v 4 h 12 v -4 z m 0,-8 v 4 h 12 v -4 z m 0,-16 v 4 h 12 v -4 z m 0,-8 v 4 h 12 v -4 z m 0,-8 v 4 h 12 v -4 z m 0,-8 v 4 h 12 v -4 z m -64,-8 v 4 h 76 v -4 z m 4,36 h 4 v 100 h -4 z m 8,88 h 4 v 12 h -4 z m 8,0 h 4 v 12 h -4 z m 8,0 h 4 v 12 h -4 z m 8,0 h 4 v 12 h -4 z m 8,0 h 4 v 12 h -4 z m 8,0 h 4 v 12 h -4 z m 8,0 h 4 v 12 h -4 z m -12,28 h 4 v 12 h -4 z m 8,0 h 4 v 12 h -4 z m 8,-8 v 4 h 12 v -4 z m 0,16 v 4 h 12 v -4 z m 0,-8 v 4 h 12 v -4 z m 0,-16 v 4 h 12 v -4 z m -64,-8 v 4 h 76 v -4 z m 68,-4 h 4 v 40 h -4 z m -212,28 h 4 v 12 h -4 z m 8,0 h 4 v 12 h -4 z m 8,0 h 4 v 12 h -4 z m 8,0 h 4 v 12 h -4 z m 8,0 h 4 v 12 h -4 z m 8,0 h 4 v 12 h -4 z m 8,0 h 4 v 12 h -4 z m 8,0 h 4 v 12 h -4 z m -120,0 h 4 v 12 h -4 z m 8,0 h 4 v 12 h -4 z m 8,0 h 4 v 12 h -4 z m 8,0 h 4 v 12 h -4 z m 8,0 h 4 v 12 h -4 z m 8,0 h 4 v 12 h -4 z m 8,0 h 4 v 12 h -4 z m 8,0 h 4 v 12 h -4 z m -120,0 h 4 v 12 h -4 z m 8,0 h 4 v 12 h -4 z m 8,0 h 4 v 12 h -4 z m 8,0 h 4 v 12 h -4 z m 8,0 h 4 v 12 h -4 z m 8,0 h 4 v 12 h -4 z m 8,0 h 4 v 12 h -4 z m 8,0 h 4 v 12 h -4 z m 136,0 h 4 v 12 h -4 z m 8,0 h 4 v 12 h -4 z M 20,212 h 4 v 12 h -4 z m 8,0 h 4 v 12 h -4 z m -4,12 h 4 v 92 h -4 z m 12,-12 h 4 v 12 h -4 z m 8,0 h 4 v 12 h -4 z m 8,0 h 4 v 12 h -4 z m 8,0 h 4 v 12 h -4 z m 8,0 h 4 v 12 h -4 z m 8,0 h 4 v 12 h -4 z m 8,0 h 4 v 12 h -4 z m 8,0 h 4 v 12 H 92 Z M 40,176 h 4 v 12 h -4 z m -8,0 h 4 v 12 h -4 z m 16,0 h 4 v 12 h -4 z m 8,0 h 4 v 12 h -4 z m 16,0 h 4 v 12 h -4 z m -8,0 h 4 v 12 h -4 z m 16,0 h 4 v 12 h -4 z m 8,0 h 4 v 36 H 88 Z M 24,52 h 4 v 136 h -4 z m -4,0 v 4 h 12 v -4 z m 0,8 v 4 h 12 v -4 z m 0,8 v 4 h 12 v -4 z m 0,24 v 4 h 12 v -4 z m 0,16 v 4 h 12 v -4 z m 0,-8 v 4 h 12 v -4 z m 0,-16 v 4 h 12 v -4 z m 0,-8 v 4 h 12 v -4 z m 0,80 v 4 h 12 v -4 z m 0,16 v 4 h 12 v -4 z m 0,-8 v 4 h 12 v -4 z m 0,-16 v 4 h 12 v -4 z m 0,-8 v 4 h 12 v -4 z m 0,-8 v 4 h 12 v -4 z m 0,-8 v 4 h 12 v -4 z m 0,-8 v 4 h 12 v -4 z m 0,64 v 4 h 76 v -4 z m 0,36 v 4 h 76 v -4 z m 64,-28 v 4 h 12 v -4 z m 0,16 v 4 h 12 v -4 z m 0,-8 v 4 h 12 v -4 z m -64,72 v 4 h 12 v -4 z m 0,16 v 4 h 12 v -4 z m 0,-8 v 4 h 12 v -4 z m 0,-16 v 4 h 12 v -4 z m 0,-8 v 4 h 12 v -4 z m 0,-8 v 4 h 12 v -4 z m 0,-8 v 4 h 12 v -4 z m 0,-8 v 4 h 12 v -4 z m 0,64 v 4 h 12 v -4 z m 0,16 v 4 h 220 v -4 z m 0,-8 v 4 h 12 v -4 z m 224,-48 h 4 v 64 h -4 z m -4,44 v 4 h 12 v -4 z m 0,16 v 4 h 12 v -4 z m 0,-8 v 4 h 12 v -4 z m 0,-16 v 4 h 12 v -4 z m 0,-8 v 4 h 12 v -4 z m 0,-8 v 4 h 12 v -4 z m 0,-8 v 4 h 12 v -4 z m 0,-8 v 4 h 12 v -4 z m 40,-16 h 4 v 76 h -4 z m -8,0 h 4 v 12 h -4 z m -8,0 h 4 v 12 h -4 z m -8,0 h 4 v 12 h -4 z m -8,0 h 4 v 12 h -4 z m -8,0 h 4 v 12 h -4 z m 0,4 v 4 h 48 v -4 z m 36,48 v 4 h 12 v -4 z m 0,16 v 4 h 92 v -4 z m 0,-8 v 4 h 12 v -4 z m 0,-16 v 4 h 12 v -4 z m 0,-8 v 4 h 12 v -4 z m 0,-8 v 4 h 12 v -4 z m 0,-8 v 4 h 12 v -4 z m 0,-8 v 4 h 12 v -4 z m 12,52 h 4 v 12 h -4 z m 8,0 h 4 v 12 h -4 z m 8,0 h 4 v 12 h -4 z m 8,0 h 4 v 12 h -4 z m 8,0 h 4 v 12 h -4 z m 8,0 h 4 v 12 h -4 z m 8,0 h 4 v 12 h -4 z m 8,0 h 4 v 12 h -4 z M 304,192 v 4 h 12 v -4 z m 0,16 v 4 h 12 v -4 z m 0,-8 v 4 h 12 v -4 z m 0,-20 v 4 h 48 v -4 z m 0,76 v 4 h 12 v -4 z m 0,16 v 4 h 12 v -4 z m 0,-8 v 4 h 12 v -4 z m 0,-16 v 4 h 12 v -4 z m 0,-8 v 4 h 12 v -4 z m 0,-8 v 4 h 12 v -4 z m 0,-8 v 4 h 12 v -4 z m 0,-8 v 4 h 12 v -4 z m 0,-40 h 4 v 12 h -4 z m 8,0 h 4 v 12 h -4 z m 8,0 h 4 v 12 h -4 z m 8,0 h 4 v 12 h -4 z m 8,0 h 4 v 12 h -4 z m 8,0 h 4 v 76 h -4 z m -4,52 v 4 h 12 v -4 z m 0,16 v 4 h 92 v -4 z m 0,-8 v 4 h 12 v -4 z m 0,-16 v 4 h 12 v -4 z m 0,-8 v 4 h 12 v -4 z m 0,-8 v 4 h 12 v -4 z m 0,-8 v 4 h 12 v -4 z m 0,-8 v 4 h 12 v -4 z m 96,24 h 4 v 40 h -4 z m -4,28 v 4 h 12 v -4 z m 0,8 v 4 h 12 v -4 z m 0,-16 v 4 h 12 v -4 z m 0,-8 v 4 h 12 v -4 z m -64,-8 v 4 h 76 v -4 z m 48,24 h 4 v 12 h -4 z m 8,0 h 4 v 12 h -4 z m -72,0 h 4 v 12 h -4 z m 8,0 h 4 v 12 h -4 z m 8,0 h 4 v 12 h -4 z m 8,0 h 4 v 12 h -4 z m 8,0 h 4 v 12 h -4 z m 8,0 h 4 v 12 h -4 z m 8,0 H 404 v 12 h -4 z M 408,240 h 4 v 12 h -4 z m -36,-92 h 4 l 0,76 h -4 z m 8,64 h 4 v 12 h -4 z m 8,0 h 4 v 12 h -4 z M 396,212 h 4 v 12 h -4 z m 8,0 h 4 v 12 h -4 z m 8,0 h 4 v 12 h -4 z m 8,0 h 4 v 12 h -4 z m 8,0 h 4 v 12 h -4 z M 308,84 h 4 v 76 h -4 z m 8,64 h 4 v 12 h -4 z m 8,0 h 4 v 12 h -4 z m 8,0 h 4 v 12 h -4 z m 8,0 h 4 v 12 h -4 z m 8,0 h 4 v 12 h -4 z m 8,0 h 4 v 12 h -4 z m 8,0 h 4 v 12 h -4 z m -60,-20 v 4 h 12 v -4 z m 0,16 v 4 h 12 v -4 z m 0,-8 v 4 h 12 v -4 z m 0,-16 v 4 h 12 v -4 z m 0,-8 v 4 h 12 v -4 z m 0,-8 v 4 h 12 v -4 z m 0,-8 v 4 h 12 v -4 z m -64,-8 v 4 h 76 v -4 z m 4,-28 h 4 v 36 h -4 z m 8,24 h 4 v 12 h -4 z m 8,0 h 4 v 12 h -4 z m 8,0 h 4 v 12 h -4 z m 8,0 h 4 v 12 h -4 z m 8,0 h 4 v 12 h -4 z m 8,0 h 4 v 12 h -4 z m 8,0 h 4 v 12 h -4 z M 240,64 v 4 h 12 v -4 z m 0,16 v 4 h 12 v -4 z m 0,-8 v 4 h 12 v -4 z m 0,-20 v 4 h 112 v -4 z m 64,-4 h 4 v 12 h -4 z m 8,0 h 4 v 12 h -4 z m 8,0 h 4 v 12 h -4 z m 8,0 h 4 v 12 h -4 z m 8,0 h 4 v 12 h -4 z m 8,0 h 4 v 76 h -4 z m -104,0 h 4 v 12 h -4 z m 8,0 h 4 v 12 h -4 z m 8,0 h 4 v 12 h -4 z m 8,0 h 4 v 12 h -4 z m 8,0 h 4 v 12 h -4 z m 8,0 h 4 v 12 h -4 z m 8,0 h 4 v 12 h -4 z m 8,0 h 4 v 12 h -4 z m 44,52 v 4 h 12 v -4 z m 0,16 v 4 h 76 v -4 z m 0,-8 v 4 h 12 v -4 z m 0,-16 v 4 h 12 v -4 z m 0,-8 v 4 h 12 v -4 z m 0,-8 v 4 h 12 v -4 z m 0,-8 v 4 h 12 v -4 z m 0,-8 v 4 h 12 v -4 z m 12,52 h 4 v 12 h -4 z m 8,0 h 4 v 12 h -4 z m 8,0 h 4 v 12 h -4 z m 8,0 h 4 v 12 h -4 z m 8,0 h 4 v 12 h -4 z m 8,0 h 4 v 12 h -4 z m 8,0 H 404 v 12 h -4 z M 408,112 h 4 v 76 h -4 z m -4,52 v 4 h 12 v -4 z m 0,16 v 4 h 92 v -4 z m 0,-8 v 4 h 12 v -4 z m 0,-16 v 4 h 12 v -4 z m 0,-8 v 4 h 12 v -4 z m 0,-8 v 4 h 12 v -4 z m 0,-8 v 4 h 12 v -4 z m 0,-8 v 4 h 12 v -4 z m 60,52 h 4 v 12 h -4 z m 8,0 h 4 v 12 h -4 z m 8,0 h 4 v 12 h -4 z m 8,0 h 4 v 12 h -4 z m 12,-92 h 4 v 104 h -4 z m -84,92 h 4 v 12 h -4 z m 8,0 h 4 v 12 h -4 z m 8,0 h 4 v 12 h -4 z m 8,0 h 4 v 12 h -4 z m 8,0 h 4 v 12 h -4 z m 8,0 h 4 v 12 h -4 z m 16,-92 h 4 v 64 h -4 z m 12,0 h 4 v 12 h -4 z m 8,0 h 4 v 12 h -4 z m -60,44 v 4 h 12 v -4 z m 0,16 v 4 h 12 v -4 z m 0,-8 v 4 h 12 v -4 z m 0,-16 v 4 h 12 v -4 z m 0,-8 v 4 h 12 v -4 z m 0,-8 v 4 h 12 v -4 z m 0,-8 v 4 h 12 v -4 z m 0,-8 v 4 h 12 v -4 z m 36,36 v 4 h 12 v -4 z m 0,16 v 4 h 12 v -4 z m 0,-8 v 4 h 12 v -4 z m 0,-16 v 4 h 12 v -4 z m 0,-8 v 4 h 12 v -4 z m 0,-8 v 4 h 12 v -4 z m 0,-8 v 4 h 12 v -4 z m 0,-8 v 4 h 12 V 84 Z M 432,64 v 4 h 12 v -4 z m 0,16 v 4 h 12 v -4 z m 0,-8 v 4 h 12 v -4 z m 0,-20 v 4 h 176 v -4 z m 4,8 h 4 v 100 h -4 z m 8,88 h 4 v 12 h -4 z m 8,0 h 4 v 12 h -4 z m 8,0 h 4 v 12 h -4 z m 8,0 h 4 v 12 h -4 z m 8,0 h 4 v 12 h -4 z M 432,48 h 4 v 12 h -4 z m 8,0 h 4 v 12 h -4 z m 8,0 h 4 v 12 h -4 z m 8,0 h 4 v 12 h -4 z m 8,0 h 4 v 12 h -4 z m 8,0 h 4 v 12 h -4 z m 8,0 h 4 v 12 h -4 z m 8,0 h 4 v 12 h -4 z m 48,36 h 4 v 128 h -4 z m 8,4 v 4 h 64 v -4 z m 52,-12 v 4 h 12 v -4 z m 0,-8 v 4 h 12 v -4 z m 0,-8 v 4 h 12 v -4 z" />
	<circle fill="#e45b58" cx="42" cy="-7" r="6">
		<animateMotion dur="20s" repeatCount="indefinite" calcMode="linear" keyPoints="0;0;1;1" keyTimes="0;.1;.9;1" path="m 0,0 v 53 h -16 v 136 h 64 v 36 h -64 v 92 h 220 v -64 h 36 v 64 h 92 V 289 H 268 V 189 h 36 v 64 h 92 V 225 H 332 V 161 H 268 V 97 H 204 V 61 h 100 v 64 h 64 v 64 h 92 V 97 h -28 v 64 H 396 V 61 h 164 v 36 h -64 v 128 h -64 v 64 h -64 v 28 h 208 v 33" />
	</circle>
</svg>
