<svg xmlns="http://www.w3.org/2000/svg" version="1.1" xmlns:xlink="http://www.w3.org/1999/xlink" xmlns:svgjs="http://svgjs.com/svgjs" width="55.297mm" height="55.297mm"><svg xmlns="http://www.w3.org/2000/svg" xml:space="preserve" width="55.297mm" height="55.297mm" version="1.1" style="shape-rendering:geometricPrecision; text-rendering:geometricPrecision; image-rendering:optimizeQuality; fill-rule:evenodd; clip-rule:evenodd" viewBox="0 0 55.297 55.297" xmlns:xlink="http://www.w3.org/1999/xlink">
 <defs>
  <style type="text/css">
   
    .fil0 {fill:#FEFEFE}
    .fil1 {fill:#EA2227}
    .fil3 {fill:#FCC416;fill-rule:nonzero}
    .fil2 {fill:#EA2227;fill-rule:nonzero}
   
  </style>
 </defs>
 <g id="SvgjsG1001">
  <metadata id="SvgjsMetadata1000"></metadata>
  <circle class="fil0" cx="27.611" cy="27.686" r="27.6484"></circle>
  <path class="fil1" d="M16.9433 28.4763l0.0534 0.0498c-0.1012,1.3163 -0.0346,7.291 -0.0285,8.6832l-0.0022 6.4862c0.0027,0.7496 -0.0386,1.4569 -0.0093,2.1851l-0.0251 0.0459c-0.9843,-0.1516 -1.4439,0.0617 -3.0884,-0.5594 -3.561,-1.3447 -5.6143,-4.7332 -5.6093,-8.0741 0.0007,-0.433 0.0719,-1.035 0.1539,-1.5322 0.5804,-3.5188 3.5438,-6.4485 7.0281,-7.0855l1.5274 -0.199z"></path>
  <path class="fil2" d="M18.8357 32.9532l0 8.0787 4.1811 0c0,-2.513 2.0594,-4.5502 4.6001,-4.5502 2.5404,0 4.5997,2.0372 4.5997,4.5502l4.1813 0 0 -8.0787 -17.5622 0z"></path>
  <path class="fil1" d="M38.2623 28.4763l-0.0535 0.0498c0.1012,1.3163 0.0346,7.291 0.0285,8.6832l0.0022 6.4862c-0.0027,0.7496 0.0386,1.4569 0.0093,2.1851l0.0251 0.0459c0.9843,-0.1516 1.4439,0.0617 3.0884,-0.5594 3.561,-1.3447 5.6143,-4.7332 5.6093,-8.0741 -0.0007,-0.433 -0.0719,-1.035 -0.1539,-1.5322 -0.5804,-3.5188 -3.5437,-6.4485 -7.028,-7.0855l-1.5274 -0.199z"></path>
  <path class="fil1" d="M23.4667 32.2929l0.0235 0.0255c0.6255,-0.0442 3.4633,0.0047 4.1245,0.0116l3.081 0.0177c0.356,0.0035 0.692,-0.0141 1.0379,0.0019l0.0218 -0.0117c-0.0691,-0.468 0.0335,-0.6857 -0.2567,-1.4686 -0.6285,-1.6954 -2.232,-2.6805 -3.8189,-2.6877 -0.2057,-0.001 -0.4919,0.0311 -0.7283,0.0686 -1.6731,0.2655 -3.0732,1.6646 -3.3859,3.3178l-0.0989 0.7249z"></path>
  <path class="fil2" d="M12.0145 26.9514l0 -7.0295 3.6381 0c0,2.1866 1.7919,3.9592 4.0026,3.9592 2.2105,0 4.0024,-1.7726 4.0024,-3.9592l3.6382 0 0 7.0295 -15.2813 0z"></path>
  <path class="fil2" d="M27.9162 26.9514l0 -7.0295 3.6381 0c0,2.1866 1.7919,3.9592 4.0026,3.9592 2.2105,0 4.0024,-1.7726 4.0024,-3.9592l3.6382 0 0 7.0295 -15.2813 0z"></path>
  <path class="fil2" d="M12.0145 12.2641l0 7.0295 3.6381 0c0,-2.1866 1.7919,-3.9592 4.0026,-3.9592 2.2105,0 4.0024,1.7726 4.0024,3.9592l3.6382 0 0 -7.0295 -15.2813 0z"></path>
  <path class="fil2" d="M27.9162 12.2741l0 7.0295 3.6381 0c0,-2.1866 1.7919,-3.9592 4.0026,-3.9592 2.2105,0 4.0024,1.7726 4.0024,3.9592l3.6382 0 0 -7.0295 -15.2813 0z"></path>
  <path class="fil3" d="M16.2938 19.299c-0.0197,-1.8632 1.4745,-3.3729 3.3377,-3.3726 1.8631,0.0008 3.3895,1.5115 3.41,3.3746l-6.7477 -0.002z"></path>
  <path class="fil3" d="M32.1955 19.299c-0.0197,-1.8632 1.4745,-3.3729 3.3377,-3.3726 1.8631,0.0008 3.3895,1.5115 3.41,3.3746l-6.7477 -0.002z"></path>
 </g>
</svg><style>@media (prefers-color-scheme: light) { :root { filter: none; } }
</style></svg>